<mxfile host="app.diagrams.net" modified="2021-09-04T00:16:54.816Z" agent="5.0 (Windows NT 10.0; Win64; x64) AppleWebKit/537.36 (KHTML, like Gecko) Chrome/91.0.4472.77 Safari/537.36" etag="-gCNF4usirscLoMUDH-2" version="15.0.6" type="github">
  <diagram id="RElzUW7_110__9JSAztV" name="Page-1">
    <mxGraphModel dx="1038" dy="491" grid="1" gridSize="10" guides="1" tooltips="1" connect="1" arrows="1" fold="1" page="1" pageScale="1" pageWidth="827" pageHeight="1169" math="0" shadow="0">
      <root>
        <mxCell id="0" />
        <mxCell id="1" parent="0" />
        <mxCell id="R6Tk0D-HItUWDzAK6WLv-10" value="" style="rounded=0;whiteSpace=wrap;html=1;" vertex="1" parent="1">
          <mxGeometry x="40" y="120" width="760" height="210" as="geometry" />
        </mxCell>
        <mxCell id="R6Tk0D-HItUWDzAK6WLv-11" value="&lt;span style=&quot;font-size: 14px&quot;&gt;马力克&amp;nbsp; / 在 / 1972 / 年 / 从 / 印度 /&amp;nbsp;&lt;/span&gt;&lt;b style=&quot;font-size: 14px&quot;&gt;&lt;u&gt;&lt;font color=&quot;#ff0000&quot;&gt;到&lt;/font&gt;&lt;/u&gt;&amp;nbsp;&lt;/b&gt;&lt;span style=&quot;font-size: 14px&quot;&gt;&amp;nbsp;/ 加拿大 / ，/&amp;nbsp; 在 / 温哥华 /&amp;nbsp;&lt;/span&gt;&lt;b style=&quot;font-size: 14px&quot;&gt;&lt;u&gt;&lt;font color=&quot;#3399ff&quot;&gt;创办&lt;/font&gt;&lt;/u&gt;&lt;/b&gt;&lt;font color=&quot;#ff0000&quot; style=&quot;font-size: 14px&quot;&gt;&amp;nbsp;&amp;nbsp;&lt;/font&gt;&lt;span style=&quot;font-size: 14px&quot;&gt;/ 一家 / 大规模 / 的 / 控股公司 /&amp;nbsp; 。&lt;/span&gt;" style="text;html=1;strokeColor=none;fillColor=none;align=center;verticalAlign=middle;whiteSpace=wrap;rounded=0;" vertex="1" parent="1">
          <mxGeometry x="132" y="190" width="661" height="20" as="geometry" />
        </mxCell>
        <mxCell id="R6Tk0D-HItUWDzAK6WLv-12" value="&lt;span style=&quot;font-size: 14px&quot;&gt;1972 / 年 / ，/ 马利克 / 从 / 印度 /&amp;nbsp;&lt;/span&gt;&lt;b style=&quot;font-size: 14px&quot;&gt;&lt;u&gt;&lt;font color=&quot;#ff0000&quot;&gt;前往&lt;/font&gt;&lt;/u&gt;&lt;/b&gt;&lt;font color=&quot;#0000cc&quot; style=&quot;font-size: 14px&quot;&gt;&amp;nbsp;/&amp;nbsp;&lt;/font&gt;&lt;span style=&quot;font-size: 14px&quot;&gt;加拿大 / ，/ 在 / 温哥华 /&amp;nbsp;&lt;/span&gt;&lt;b style=&quot;font-size: 14px&quot;&gt;&lt;u&gt;&lt;font color=&quot;#3399ff&quot;&gt;成立&lt;/font&gt;&lt;/u&gt;&amp;nbsp;&lt;/b&gt;&lt;span style=&quot;font-size: 14px&quot;&gt;/ 了 / 一家 / 大型 / 控股公司&amp;nbsp; / 。&lt;/span&gt;" style="text;html=1;strokeColor=none;fillColor=none;align=center;verticalAlign=middle;whiteSpace=wrap;rounded=0;" vertex="1" parent="1">
          <mxGeometry x="99" y="267" width="700" height="20" as="geometry" />
        </mxCell>
        <mxCell id="R6Tk0D-HItUWDzAK6WLv-13" value="&lt;span style=&quot;font-size: 14px&quot;&gt;In 1972，Malik&amp;nbsp;&lt;/span&gt;&lt;b style=&quot;font-size: 14px&quot;&gt;&lt;u&gt;&lt;font color=&quot;#ff0000&quot;&gt;went&lt;/font&gt;&lt;/u&gt;&lt;/b&gt;&lt;span style=&quot;font-size: 14px&quot;&gt;&lt;font color=&quot;#ff0000&quot;&gt;&amp;nbsp;&lt;/font&gt;to Canada from India and&amp;nbsp;&lt;/span&gt;&lt;b style=&quot;font-size: 14px&quot;&gt;&lt;u&gt;&lt;font color=&quot;#3399ff&quot;&gt;set up&lt;/font&gt;&lt;/u&gt;&lt;/b&gt;&lt;span style=&quot;font-size: 14px&quot;&gt;&amp;nbsp;a large holding company in Vancouver.&lt;/span&gt;" style="text;html=1;strokeColor=none;fillColor=none;align=center;verticalAlign=middle;whiteSpace=wrap;rounded=0;" vertex="1" parent="1">
          <mxGeometry x="100" y="300" width="650" height="20" as="geometry" />
        </mxCell>
        <mxCell id="R6Tk0D-HItUWDzAK6WLv-14" value="&lt;span style=&quot;font-size: 14px&quot;&gt;Malik&amp;nbsp;&lt;/span&gt;&lt;b style=&quot;font-size: 14px&quot;&gt;&lt;u&gt;&lt;font color=&quot;#ff0000&quot;&gt;went&lt;/font&gt;&lt;/u&gt;&lt;/b&gt;&lt;span style=&quot;font-size: 14px&quot;&gt;&amp;nbsp;from India to Canada in 1972 to&amp;nbsp;&lt;/span&gt;&lt;b style=&quot;font-size: 14px&quot;&gt;&lt;u&gt;&lt;font color=&quot;#3399ff&quot;&gt;set up&lt;/font&gt;&lt;/u&gt;&lt;/b&gt;&lt;span style=&quot;font-size: 14px&quot;&gt;&amp;nbsp;a large holding company in Vancouver.&lt;/span&gt;" style="text;html=1;strokeColor=none;fillColor=none;align=center;verticalAlign=middle;whiteSpace=wrap;rounded=0;" vertex="1" parent="1">
          <mxGeometry x="99" y="220" width="630" height="20" as="geometry" />
        </mxCell>
        <mxCell id="R6Tk0D-HItUWDzAK6WLv-15" value="&lt;b&gt;&lt;font style=&quot;font-size: 14px&quot;&gt;case 1:&lt;/font&gt;&lt;/b&gt;" style="text;html=1;strokeColor=none;fillColor=none;align=center;verticalAlign=middle;whiteSpace=wrap;rounded=0;" vertex="1" parent="1">
          <mxGeometry x="60" y="190" width="49.75" height="20" as="geometry" />
        </mxCell>
        <mxCell id="R6Tk0D-HItUWDzAK6WLv-16" value="&lt;b&gt;&lt;font style=&quot;font-size: 14px&quot;&gt;case 2:&lt;/font&gt;&lt;/b&gt;" style="text;html=1;strokeColor=none;fillColor=none;align=center;verticalAlign=middle;whiteSpace=wrap;rounded=0;" vertex="1" parent="1">
          <mxGeometry x="60" y="267" width="49.75" height="20" as="geometry" />
        </mxCell>
        <mxCell id="R6Tk0D-HItUWDzAK6WLv-17" value="" style="endArrow=none;html=1;exitX=0;exitY=0.25;exitDx=0;exitDy=0;" edge="1" parent="1">
          <mxGeometry width="50" height="50" relative="1" as="geometry">
            <mxPoint x="40" y="248.5" as="sourcePoint" />
            <mxPoint x="800" y="249" as="targetPoint" />
          </mxGeometry>
        </mxCell>
        <mxCell id="R6Tk0D-HItUWDzAK6WLv-18" value="" style="endArrow=none;html=1;exitX=0;exitY=0.25;exitDx=0;exitDy=0;entryX=1;entryY=0.25;entryDx=0;entryDy=0;" edge="1" parent="1" source="R6Tk0D-HItUWDzAK6WLv-10" target="R6Tk0D-HItUWDzAK6WLv-10">
          <mxGeometry width="50" height="50" relative="1" as="geometry">
            <mxPoint x="460" y="130" as="sourcePoint" />
            <mxPoint x="510" y="80" as="targetPoint" />
          </mxGeometry>
        </mxCell>
        <mxCell id="R6Tk0D-HItUWDzAK6WLv-19" value="&lt;font style=&quot;font-size: 18px&quot;&gt;&lt;b&gt;Event type: &lt;font color=&quot;#ff0000&quot;&gt;Movement - transport&lt;/font&gt; and &lt;font color=&quot;#3399ff&quot;&gt;Business - start-org&lt;/font&gt;&lt;/b&gt;&lt;/font&gt;" style="text;html=1;strokeColor=none;fillColor=none;align=center;verticalAlign=middle;whiteSpace=wrap;rounded=0;" vertex="1" parent="1">
          <mxGeometry x="150" y="140" width="570" height="20" as="geometry" />
        </mxCell>
      </root>
    </mxGraphModel>
  </diagram>
</mxfile>
